<svg xmlns="http://www.w3.org/2000/svg" xmlns:cc="http://web.resource.org/cc/" xmlns:svg="http://www.w3.org/2000/svg" xmlns:xlink="http://www.w3.org/1999/xlink" id="svg1306" width="32" height="32"><metadata id="metadata1311"/><g id="layer1"><path xlink:href="#path4512" style="fill:red;fill-opacity:1;fill-rule:evenodd;stroke:#000;stroke-width:.25pt;stroke-linecap:butt;stroke-linejoin:miter;stroke-opacity:1" id="path4514" d="M 25.968750,0.50000000 C 25.339698,0.50825653 24.736977,0.75380949 24.281250,1.1875000 L 8.2812500,16.187500 C 7.5351208,16.889731 7.2940843,17.976696 7.6734276,18.928503 C 8.0527709,19.880309 8.9753903,20.503498 10.000000,20.500000 L 3.2500000,27.250000 C 2.3976318,28.191623 2.3885352,29.623252 3.2288689,30.575630 C 4.0692026,31.528009 5.4908237,31.697240 6.5312500,30.968750 L 25.531250,15.968750 C 26.438530,15.269821 26.753563,14.043022 26.295291,12.993429 C 25.837018,11.943837 24.723105,11.340944 23.593750,11.531250 L 21.531250,11.875000 L 27.875000,4.6562500 C 28.535091,3.9163972 28.694531,2.8559293 28.281179,1.9546850 C 27.867826,1.0534407 26.960109,0.48242106 25.968750,0.50000000 z"/><path style="fill:#ff0;fill-opacity:1;fill-rule:evenodd;stroke:#000;stroke-width:.2500001pt;stroke-linecap:butt;stroke-linejoin:miter;stroke-opacity:1" id="path4512" d="M 29.271469,3.0000000 L 10.286005,15.218885 L 15.933346,16.793992 L 2.9560508,29.000000 L 25.563522,15.819742 L 19.264027,14.420601 L 29.271469,3.0000000 z"/></g></svg>